<?xml version="1.0" encoding="UTF-8"?>
<svg id="Layer_1" xmlns="http://www.w3.org/2000/svg" version="1.1" viewBox="0 0 1200 800">
  <!-- Generator: Adobe Illustrator 30.7.0, SVG Export Plug-In . SVG Version: 2.1.4 Build 114)  -->
  <defs>
    <style>
      .st0, .st1, .st2, .st3 {
        fill: none;
      }

      .st0, .st4 {
        stroke: #18181b;
        stroke-width: 1.5px;
      }

      .st5 {
        font-size: 13px;
      }

      .st5, .st6, .st7, .st8, .st9, .st10, .st11, .st12, .st13, .st14 {
        isolation: isolate;
      }

      .st5, .st10, .st14 {
        fill: #71717a;
      }

      .st5, .st14 {
        font-family: Inter-Regular, Inter;
      }

      .st1 {
        stroke: #a1a1aa;
        stroke-dasharray: 5 4;
        stroke-width: 1.2px;
      }

      .st6 {
        font-family: IBMPlexMono-Bold, 'IBM Plex Mono';
        font-size: 24px;
        font-weight: 700;
      }

      .st6, .st9, .st15 {
        fill: #18181b;
      }

      .st7 {
        fill: #8f8f96;
      }

      .st7, .st8 {
        font-family: IBMPlexMono, 'IBM Plex Mono';
        font-size: 12.5px;
      }

      .st8, .st4, .st16, .st17 {
        fill: #fff;
      }

      .st2, .st18, .st17 {
        stroke: #e4e4e7;
      }

      .st18 {
        fill: #fafafa;
      }

      .st9 {
        font-size: 15px;
      }

      .st9, .st13 {
        font-family: Inter-SemiBold, Inter;
        font-weight: 600;
      }

      .st10 {
        font-family: Helvetica-Oblique, Helvetica;
        font-style: oblique;
      }

      .st10, .st14 {
        font-size: 11.5px;
      }

      .st11 {
        fill: #52525b;
        font-size: 9.5px;
        letter-spacing: .17em;
      }

      .st11, .st12 {
        font-family: IBMPlexMono-Medium, 'IBM Plex Mono';
        font-weight: 500;
      }

      .st19, .st12 {
        fill: #a1a1aa;
      }

      .st12 {
        font-size: 10.5px;
        letter-spacing: .21em;
      }

      .st13 {
        fill: #27272a;
        font-size: 13.5px;
      }

      .st3 {
        stroke: #d4d4d8;
        stroke-dasharray: 4 4;
      }
    </style>
  </defs>
  <rect class="st16" y="0" width="1200" height="800"/>
  <text class="st12" transform="translate(48 76)"><tspan x="0" y="0">INDIVIDUAL VIBEGRAPH</tspan></text>
  <rect class="st17" x="48" y="90" width="330" height="600" rx="18" ry="18"/>
  <text class="st6" transform="translate(76 132)"><tspan x="0" y="0">Jordan Lee</tspan></text>
  <text class="st5" transform="translate(76 152)"><tspan x="0" y="0">jordan-lee.vibegraph.md</tspan></text>
  <rect class="st18" x="76" y="176" width="274" height="150" rx="12" ry="12"/>
  <text class="st9" transform="translate(94 204)"><tspan x="0" y="0">Core Identity</tspan></text>
  <line class="st2" x1="94" y1="218" x2="332" y2="218"/>
  <text class="st13" transform="translate(94 242)"><tspan x="0" y="0">Personality</tspan></text>
  <text class="st14" transform="translate(94 259)"><tspan x="0" y="0">Big Five + Enneagram</tspan></text>
  <text class="st13" transform="translate(94 284)"><tspan x="0" y="0">Ikigai</tspan></text>
  <text class="st14" transform="translate(94 301)"><tspan x="0" y="0">the founder&apos;s own Why lives here</tspan></text>
  <rect class="st17" x="76" y="346" width="274" height="88" rx="12" ry="12"/>
  <text class="st9" transform="translate(94 374)"><tspan x="0" y="0">Personal brand</tspan></text>
  <text class="st14" transform="translate(94 394)"><tspan x="0" y="0">jordan-lee.brand.md</tspan></text>
  <text class="st14" transform="translate(94 411)"><tspan x="0" y="0">Context · 12, Visuals · 8</tspan></text>
  <rect class="st4" x="76" y="454" width="274" height="60" rx="12" ry="12"/>
  <text class="st13" transform="translate(94 480)"><tspan x="0" y="0">Business brand: Acme Studio</tspan></text>
  <text class="st14" transform="translate(94 498)"><tspan x="0" y="0">acme-studio.brand.md</tspan></text>
  <rect class="st3" x="76" y="526" width="274" height="44" rx="12" ry="12"/>
  <text class="st14" transform="translate(94 553)"><tspan x="0" y="0">+ every business Jordan owns</tspan></text>
  <text class="st14" transform="translate(76 640)"><tspan x="0" y="0">Built after the identity and personal</tspan><tspan x="0" y="13.8">brand. Its founder’s personal brand</tspan><tspan x="0" y="27.6">provides the seed material.</tspan></text>
  <path class="st0" d="M350,484h80"/>
  <path class="st15" d="M430,484l-8-4.5v9l8-4.5Z"/>
  <text class="st12" transform="translate(430 76)"><tspan x="0" y="0">BUSINESS BRAND SYSTEM</tspan></text>
  <rect class="st17" x="430" y="90" width="722" height="600" rx="18" ry="18"/>
  <rect class="st15" x="458" y="116" width="666" height="40" rx="8" ry="8"/>
  <text class="st8" transform="translate(478 141)"><tspan x="0" y="0">acme-studio.brand.md</tspan></text>
  <text class="st7" transform="translate(648 141)"><tspan x="0" y="0">| kind: business · one file per brand</tspan></text>
  <text class="st12" transform="translate(458 192)"><tspan x="0" y="0">FOUNDATIONS · INSTRUMENTS SWAPPED</tspan></text>
  <rect class="st17" x="458" y="204" width="316" height="250" rx="12" ry="12"/>
  <text class="st13" transform="translate(476 232)"><tspan x="0" y="0">Brand personality</tspan></text>
  <text class="st14" transform="translate(476 250)"><tspan x="0" y="0">Aaker&apos;s five dimensions: Sincerity,</tspan></text>
  <text class="st14" transform="translate(476 266)"><tspan x="0" y="0">Excitement, Competence,</tspan></text>
  <text class="st14" transform="translate(476 282)"><tspan x="0" y="0">Sophistication, Ruggedness</tspan></text>
  <line class="st2" x1="476" y1="298" x2="756" y2="298"/>
  <text class="st13" transform="translate(476 322)"><tspan x="0" y="0">Brand character</tspan></text>
  <text class="st14" transform="translate(476 340)"><tspan x="0" y="0">one Jungian archetype to speak from</tspan></text>
  <line class="st2" x1="476" y1="356" x2="756" y2="356"/>
  <text class="st13" transform="translate(476 380)"><tspan x="0" y="0">Purpose</tspan></text>
  <text class="st14" transform="translate(476 398)"><tspan x="0" y="0">Golden Circle: Why / How / What</tspan></text>
  <text class="st14" transform="translate(476 414)"><tspan x="0" y="0">+ mission, vision, values</tspan></text>
  <text class="st11" transform="translate(476 437)"><tspan x="0" y="0">REPLACES BIG FIVE + IKIGAI</tspan></text>
  <text class="st12" transform="translate(806 192)"><tspan x="0" y="0">STRUCTURE · SAME AS PERSONAL</tspan></text>
  <rect class="st17" x="806" y="204" width="318" height="250" rx="12" ry="12"/>
  <text class="st13" transform="translate(824 232)"><tspan x="0" y="0">Brand Context</tspan></text>
  <text class="st14" transform="translate(824 250)"><tspan x="0" y="0">the same twelve elements, in the</tspan></text>
  <text class="st14" transform="translate(824 266)"><tspan x="0" y="0">company&apos;s voice: UVP, values, tone,</tspan></text>
  <text class="st14" transform="translate(824 282)"><tspan x="0" y="0">messaging, boilerplates, presence</tspan></text>
  <line class="st2" x1="824" y1="298" x2="1106" y2="298"/>
  <text class="st13" transform="translate(824 322)"><tspan x="0" y="0">Brand Visuals</tspan></text>
  <text class="st14" transform="translate(824 340)"><tspan x="0" y="0">the same eight elements, deepened</tspan></text>
  <text class="st14" transform="translate(824 356)"><tspan x="0" y="0">into a full design system + templates</tspan></text>
  <text class="st14" transform="translate(824 372)"><tspan x="0" y="0">for what the business ships repeatedly</tspan></text>
  <text class="st11" transform="translate(824 437)"><tspan x="0" y="0">CARRIES OVER FROM PERSONAL</tspan></text>
  <text class="st12" transform="translate(458 500)"><tspan x="0" y="0">BUSINESS ORBITS · BUILT FOR REPEATABILITY</tspan></text>
  <rect class="st17" x="458" y="512" width="666" height="120" rx="12" ry="12"/>
  <rect class="st18" x="476" y="530" width="60" height="30" rx="8" ry="8"/>
  <text class="st14" transform="translate(493.03 549)"><tspan x="0" y="0">CRM</tspan></text>
  <rect class="st18" x="548" y="530" width="90" height="30" rx="8" ry="8"/>
  <text class="st14" transform="translate(568.73 549)"><tspan x="0" y="0">Finances</tspan></text>
  <rect class="st18" x="650" y="530" width="100" height="30" rx="8" ry="8"/>
  <text class="st14" transform="translate(670.13 549)"><tspan x="0" y="0">Operations</tspan></text>
  <rect class="st18" x="762" y="530" width="130" height="30" rx="8" ry="8"/>
  <text class="st14" transform="translate(777.63 549)"><tspan x="0" y="0">SOPs &amp; playbooks</tspan></text>
  <rect class="st18" x="904" y="530" width="130" height="30" rx="8" ry="8"/>
  <text class="st14" transform="translate(924.4 549)"><tspan x="0" y="0">Brand templates</tspan></text>
  <rect class="st18" x="1046" y="530" width="60" height="30" rx="8" ry="8"/>
  <text class="st14" transform="translate(1060.6858 549)"><tspan x="0" y="0">Goals</tspan></text>
  <text class="st14" transform="translate(476 590)"><tspan x="0" y="0">Any operator (teammate, contractor, or agent) following the same playbook produces the</tspan></text>
  <text class="st14" transform="translate(476 607)"><tspan x="0" y="0">same result. An SOP written for a new hire is most of the way to a protocol an agent can run.</tspan></text>
  <path class="st1" d="M350,290h54v98h66"/>
  <circle class="st19" cx="350" cy="290" r="3"/>
  <path class="st19" d="M470,388l-7-4v8l7-4Z"/>
  <text class="st11" transform="translate(398.56 387.25) rotate(-90)"><tspan x="0" y="0">THE SAME WHY</tspan></text>
  <text class="st10" transform="translate(458 666)"><tspan x="0" y="0">The founder&apos;s Why and the company&apos;s Why: written in the same shape, checked against each other, in one graph.</tspan></text>
</svg>